<svg width="20" height="20" viewBox="0 0 20 20" fill="none" xmlns="http://www.w3.org/2000/svg">
<path fill-rule="evenodd" clip-rule="evenodd" d="M14.9944 5.87417C14.9944 5.41667 14.6244 5.04417 14.166 5.04167L7.50521 5H7.50021C7.04188 5 6.67021 5.37 6.66688 5.82833C6.66354 6.28833 7.03438 6.66417 7.49521 6.66667L12.1269 6.69583L5.24438 13.5775C4.91854 13.9033 4.91854 14.4308 5.24438 14.7558C5.40688 14.9192 5.62021 15 5.83354 15C6.04688 15 6.26021 14.9192 6.42271 14.7558L13.3294 7.84917L13.3335 12.5008C13.3335 12.9608 13.7069 13.3333 14.1669 13.3333H14.1677C14.6277 13.3333 15.0002 12.9592 15.0002 12.4992L14.9944 5.87417Z" fill="white"/>
</svg>
